<?xml version="1.0" encoding="UTF-8"?>
<svg xmlns="http://www.w3.org/2000/svg" viewBox="20 115 805 970">
<style type="text/css">
	.st0{fill:#DF1F2E;}
	.st1{fill:#1F140F;}
</style>
<g>
	<path class="st0" d="M779.2,604.39c-0.48,0.76-0.39,1.45,0.28,2.05c3.24,5.42-0.53,11.87,2.53,17.32c0.13,1.65,0.26,3.3,0.4,4.95
		c3.2,9.37-0.85,19.33,2.33,28.7c-0.88,10.46-0.91,20.92-0.01,31.38c-3.16,9.4,0.9,19.4-2.39,28.79
		c-0.13,1.56-0.26,3.11-0.39,4.67c-2.54,4.65,0.32,10.13-2.29,14.76c-0.18,1.51-0.35,3.03-0.53,4.54
		c-2.2,3.78,0.26,8.51-2.45,12.19c-0.66,0.54-0.77,1.16-0.31,1.88c-1.75,2.82-0.28,6.44-2.31,9.19c-0.67,0.66-0.8,1.4-0.38,2.24
		c-2.07,2.62-0.27,6.3-2.45,8.89c-0.69,0.53-0.83,1.17-0.42,1.94c-1.87,2.77-0.06,6.6-2.65,9.16l0.06-0.13
		c-2.37,2.36-0.21,6.19-2.75,8.49l0.03-0.07c-2.52,2.25-0.16,6.21-2.93,8.38l0.08-0.15c-2.41,2.31,0.03,6.37-3.05,8.44l0.14-0.24
		c-1.21,1.81-0.94,4.26-2.52,5.91l0,0c-2.71,2.08,0.01,6.35-3.31,8.18l0.19-0.28c-1.11,1.88-0.75,4.45-2.78,5.9l0.13-0.21
		c-1.3,1.75-0.93,4.3-2.74,5.82l0.07-0.12c-1.49,1.62-1.04,4.2-2.81,5.69l0.06-0.1c-1.54,1.58-1.04,4.23-2.94,5.63l0.1-0.15
		c-1.45,1.65-0.95,4.35-3.03,5.66l0.15-0.22c-1.32,1.74-0.76,4.55-3.21,5.64l0.32-0.34c-0.31,1.46-1.47,2.34-2.36,3.41L735,862.2
		c-1.78,1.37-1.16,4.13-3.11,5.4l0.12-0.18c-1.43,1.66-0.84,4.5-3.26,5.57l0.31-0.34c-0.34,1.46-1.48,2.35-2.42,3.38l-0.01,0.01
		c-1.76,1.36-1.04,4.34-3.47,5.26l0.32-0.33c-0.34,1.51-1.47,2.41-2.56,3.35l0.06-0.08c-1.61,1.47-0.88,4.52-3.54,5.29l0.36-0.34
		c-0.16,1.67-1.33,2.57-2.58,3.42l0.16-0.19c-0.65,1.19-1.74,2.02-2.49,3.13l-0.07,0.1c-1.9,1.17-1.1,4.32-3.67,5l0.36-0.34
		c-0.25,1.69-1.37,2.64-2.82,3.3l0.26-0.27c-0.53,1.38-1.6,2.31-2.71,3.2l0.1-0.12c-0.77,1.07-1.8,1.92-2.53,3.02l-0.08,0.11
		c-1.91,1.15-1.09,4.33-3.71,4.95l0.36-0.35c-0.26,1.76-1.32,2.76-3.01,3.16l0.31-0.31c-0.34,1.66-1.42,2.64-2.95,3.2l0.29-0.29
		c-0.5,1.51-1.54,2.5-2.97,3.13l0.26-0.26c-0.59,1.4-1.62,2.38-2.92,3.11l0.21-0.21c-0.69,1.27-1.7,2.24-2.89,3.03l0.15-0.16
		c-0.73,1.19-1.75,2.1-2.78,3l0.07-0.07c-0.87,1.03-1.82,1.98-2.86,2.85l0.08-0.07c-0.89,1.04-1.81,2.04-2.97,2.8l0.14-0.14
		c-0.81,1.16-1.78,2.16-3,2.88l0.19-0.18c-0.75,1.24-1.73,2.24-3,2.95l0.21-0.2c-0.72,1.28-1.71,2.29-3.04,2.95l0.23-0.23
		c-0.69,1.34-1.68,2.37-3.09,2.96l0.26-0.26c-0.63,1.45-1.61,2.52-3.2,2.91l0.32-0.34c-0.67,2.4-3.87,1.54-4.75,3.68l-0.34,0.27
		c-1.11,0.57-2.01,1.36-2.73,2.38l-0.13,0.1c-1.09,0.74-1.94,1.77-3.01,2.55l0.11-0.09c-0.88,1.1-1.82,2.14-3.12,2.76l0.23-0.23
		c-0.72,1.36-1.67,2.45-3.24,2.84l0.33-0.34c-0.83,2.43-3.89,1.67-5.1,3.55l-0.1,0.07c-1.1,0.77-1.93,1.89-3.17,2.48l0.23-0.18
		c-0.91,1.49-2.12,2.55-3.92,2.77c-0.82-0.14-1.37,0.19-1.63,0.98c-1.02,0.56-1.92,1.27-2.69,2.14l0.01-0.01
		c-1,0.96-1.9,2.04-3.24,2.56l0.29-0.26c-1.11,2.2-3.97,1.54-5.36,3.29l-0.01,0.01c-1.03,0.93-1.92,2.06-3.36,2.43l0.32-0.3
		c-1.01,2.37-3.92,1.7-5.37,3.38l0.04-0.02c-1.07,1.19-2.22,2.25-3.9,2.5c-0.81-0.2-1.39,0.08-1.73,0.85
		c-1.02,0.68-2.03,1.38-3.01,2.11l0.22-0.17c-1.33,1.99-4.03,1.45-5.57,3.03l0.08-0.04c-1.41,1.72-4.07,1.14-5.45,2.93l-0.06,0.03
		c-1.19,1.09-2.37,2.21-4.1,2.36l-0.94-0.03l-0.61,0.72c-1.13,0.86-2.22,1.82-3.67,2.14l-1.08-0.02l-0.81,0.72
		c-1.21,0.86-2.33,1.88-3.91,2.03l-0.95-0.09l-0.67,0.68c-1.19,1.01-2.36,2.05-4.03,2.18l-0.9-0.12l-0.62,0.66
		c-1.55,1.48-4.07,0.89-5.51,2.6l-0.01,0c-1.67,1.61-4.22,1.24-6,2.61l-1.31-0.03l-1.12,0.68c-1.26,0.78-2.39,1.85-4,1.93
		l-0.88-0.17l-0.63,0.63c-1.72,1.57-4.24,1.16-6.06,2.48l-1.28-0.03l-1.07,0.7c-1.73,1.1-4.07,0.66-5.6,2.26
		c-0.91,0.19-1.83,0.37-2.74,0.56c-1.79,1.04-4.1,0.71-5.73,2.17l-1.37-0.08l-1.22,0.63c-1.83,1.1-4.16,0.85-5.91,2.17l-1.28-0.11
		l-1.13,0.62c-2.1,1.11-4.47,1.34-6.69,2.06c-1.48,0.25-2.95,0.5-4.43,0.75c-2.11,1.06-4.47,1.32-6.69,2.03
		c-1.48,0.24-2.95,0.49-4.43,0.73c-2.92,1.63-6.44,0.55-9.38,2.08c-1.5,0.19-3,0.39-4.5,0.58c-3.74,2.27-8.3,0.06-12.06,2.23
		c-3.46-0.61-6.85-0.18-10.21,0.72c-6.63,2.44-13.82-0.66-20.42,2.08c-12.23-0.01-24.46-0.02-36.7-0.02
		c-5.7-2.52-12.03,0.25-17.76-2.07c-2.47-0.24-4.93-0.48-7.4-0.72c-2.9-1.55-6.34-0.53-9.26-1.97c-2.46-0.28-4.92-0.56-7.38-0.83
		c-2.13-0.79-4.44-0.98-6.52-1.94c-1.67-0.24-3.33-0.48-5-0.73c-2.67-1.97-6.3-0.31-8.95-2.35l-1.05-0.59l-1.19,0.18
		c-1.85-1.18-4.14-1.05-6.04-2.07c-0.91-0.18-1.82-0.36-2.73-0.55c-2.31-2.51-6.11-0.28-8.47-2.66l-0.75-0.62l-0.95,0.19
		c-2.19-0.85-4.69-0.8-6.64-2.34l-0.7-0.63l-0.93,0.16c-2.24-0.82-4.82-0.76-6.68-2.58l0.13,0.06c-1.61-1.46-4.01-1.06-5.68-2.38
		l-0.86-0.67l-1.09,0.08c-2.07-1.02-4.64-0.81-6.4-2.6l0.1,0.05c-1.61-1.52-4.11-1.12-5.72-2.65l-0.04-0.01
		c-1.4-1.76-3.94-1.15-5.47-2.63l-0.65-0.65l-0.92,0.12c-1.62-0.14-2.76-1.17-3.97-2.1l-0.78-0.69l-1.04,0.04
		c-1.48-0.26-2.57-1.24-3.74-2.07l-0.79-0.71l-1.07,0.01c-1.54-0.31-2.62-1.39-3.84-2.25l-0.2-0.09c-1.22-1.97-3.86-1.32-5.3-2.87
		l-0.03-0.01c-1.41-1.75-4.08-1.17-5.46-2.97l0.12,0.06c-1.59-1.52-4.31-0.99-5.6-3.06l0.25,0.21c-1.24-0.53-2.04-1.7-3.25-2.29
		l-0.27-0.14c-1.09-2.06-3.9-1.31-5.13-3.15l0.15,0.11c-0.91-0.79-1.88-1.5-2.9-2.13c-0.38-0.77-0.99-1.06-1.82-0.87
		c-1.62-0.31-2.75-1.35-3.81-2.5l0.03,0.02c-1.43-1.69-4.35-1.01-5.35-3.39l0.32,0.31c-1.47-0.39-2.38-1.5-3.31-2.59l0.09,0.07
		c-0.94-0.88-1.95-1.67-3.02-2.38l-0.27-0.17c-1.02-2.07-4.05-1.27-4.97-3.48l0.29,0.28c-1.37-0.5-2.28-1.58-3.25-2.59l0.05,0.04
		c-0.82-0.85-1.74-1.58-2.76-2.19c-0.22-0.77-0.72-1.07-1.5-0.91c-1.91-0.2-3.18-1.24-3.94-2.97l0.33,0.27
		c-1.46-0.5-2.41-1.56-3.19-2.83l0.2,0.18c-1.24-0.65-2.13-1.72-3.08-2.7l0.04,0.04c-0.91-0.91-1.89-1.75-2.92-2.52l-0.16-0.12
		c-1.08-1.96-4.31-1.12-4.87-3.75l0.33,0.36c-1.77-0.2-2.74-1.3-3.24-2.92l0.3,0.3c-1.58-0.43-2.57-1.48-3.16-2.97l0.27,0.27
		c-1.46-0.56-2.47-1.58-3.07-3.03l0.27,0.26c-1.43-0.58-2.43-1.6-3.09-2.98l0.24,0.24c-1.37-0.64-2.37-1.65-3.03-3l0.23,0.23
		c-1.33-0.64-2.3-1.66-3.08-2.89l0.18,0.18c-1.22-0.74-2.18-1.73-2.99-2.89l0.14,0.14c-1.16-0.81-2.16-1.77-2.89-3l0.18,0.19
		c-1.25-0.77-2.28-1.74-2.89-3.1l0.24,0.25c-1.39-0.66-2.43-1.65-2.96-3.12l0.28,0.28c-1.5-0.57-2.55-1.57-2.98-3.15l0.3,0.29
		c-1.62-0.44-2.56-1.52-2.98-3.11l0.36,0.21c-1.67-0.81-1.88-1.91-0.66-3.3c14.45-6.13,29.18-11.38,44.76-13.92
		c25.31,20.08,49.45,41.75,78,57.47c84.65,46.59,171.9,52.99,261.76,16.69c38.57-15.58,73.37-37.12,102.53-67.16
		c1.1-0.87,2.37-1.28,3.77-1.45c5.3-0.64,10.33,7.01,15.35,1.6c7.82-8.43,14.42-17.95,20.03-28.02c2.86-5.15-7.45-7.55-3.37-13.38
		c22.8-26.47,37.28-57.61,46.91-90.53c29.62-101.17,17.86-197.68-36.51-288.38c-10.39-17.33-21.92-34.07-37.93-47.95
		c-0.69,8.71,1.78,17.05-1.85,24.85c-5.65,5.61-12.21,2.28-17.72,0.66c-9.37-2.76-16.59-1.42-22.39,6.53
		c-1.48,0.38-2.47-0.12-2.9-1.62c0.82-2.54,0.45-5.02-0.41-7.46c-3.41-9.26,0.91-19.19-2.45-28.46c0.72-2.62,0.46-5.18-0.44-7.7
		c-3.07-8.43,0.81-17.47-2.3-25.89c0.91-4.37,0.46-8.69-0.43-13c-1.63-2.77-1.69-5.53,0.05-8.28c0.13-1.61,0.25-3.22,0.38-4.83
		c1.14-1.98,0.87-4.54,2.58-6.29l-0.04,0.05c0.88-0.97,1.85-1.86,2.69-2.87l0.04-0.04c1.05-0.85,1.9-1.95,3.15-2.56l-0.21,0.19
		c0.81-1.3,1.72-2.47,3.41-2.61l-0.34,0.37c0.75-2.71,3.8-1.98,5.32-3.54l-0.13,0.09c2.78-2.11,5.51-2.44,8.14,0.26l-0.26-0.17
		c1.82,1.21,4.48,0.77,5.8,2.95l-0.25-0.17c1.79,1.24,4.59,0.69,5.68,3.18l-0.34-0.32c1.48,0.28,2.36,1.45,3.43,2.34l0.04,0.03
		c1.32,1.8,4.26,1.1,5.27,3.39l-0.31-0.3c1.43,0.47,2.35,1.55,3.25,2.67l-0.11-0.09c1.06,0.76,1.89,1.81,3.02,2.5l0.15,0.1
		c1.12,1.94,4.28,1.13,4.96,3.67l-0.33-0.35c1.66,0.28,2.61,1.39,3.29,2.82l-0.26-0.25c1.39,0.6,2.37,1.63,3.09,2.94l-0.22-0.21
		c1.29,0.68,2.26,1.69,3.04,2.9l-0.17-0.17c1.21,0.72,2.15,1.73,2.99,2.84l-0.11-0.11c1.1,0.82,2.05,1.79,2.9,2.86l-0.09-0.09
		c1.07,0.85,2.04,1.8,2.86,2.89l-0.1-0.1c1.09,0.83,2.06,1.79,2.88,2.89l-0.11-0.11c1.1,0.84,2.09,1.79,2.86,2.94l-0.13-0.14
		c1.16,0.82,2.16,1.78,2.86,3.03l-0.2-0.21c1.3,0.77,2.39,1.72,2.78,3.26l-0.32-0.3c3.08,1.81,3.72,5.61,6.33,7.8l0.11,0.14
		c0.77,1.03,1.63,1.99,2.55,2.88l-0.02-0.02c0.94,0.97,1.97,1.86,2.71,3l-0.13-0.14c1.17,0.84,2.2,1.79,2.81,3.13l-0.24-0.25
		c1.39,0.68,2.45,1.65,2.91,3.18l-0.29-0.29c1.57,0.54,2.67,1.51,2.91,3.24l-0.37-0.34c2.62,0.67,1.83,3.81,3.66,5.06l0.03,0.05
		c0.84,1.07,1.99,1.9,2.51,3.22l-0.22-0.24c1.38,0.74,2.52,1.66,2.72,3.36l-0.37-0.34c2.65,0.72,1.9,3.81,3.6,5.19l-0.02-0.03
		c1,0.98,2.09,1.89,2.56,3.27l-0.29-0.3c2.24,0.95,1.48,3.95,3.46,5.08l0.11,0.18c0.67,1.16,1.79,1.98,2.38,3.2l-0.19-0.23
		c2.02,1.22,1.37,4.01,3.18,5.36l0.03,0.06c0.87,1.07,2.02,1.95,2.35,3.4l-0.31-0.33c2.42,1.05,1.81,3.91,3.29,5.53l-0.1-0.15
		c1.89,1.27,1.22,4.03,3.12,5.3l0.07,0.13c0.74,1.14,1.99,1.94,2.32,3.37l-0.29-0.32c2.33,1.18,1.8,3.94,3.14,5.67l-0.14-0.21
		c2.05,1.35,1.57,4.02,2.97,5.71l-0.11-0.18c1.94,1.41,1.49,4.04,2.9,5.72l-0.1-0.17c1.92,1.44,1.49,4.04,2.86,5.76l-0.12-0.19
		c1.97,1.45,1.58,4.03,2.82,5.83l-0.15-0.25c2.19,1.61,1.88,4.32,2.85,6.47c-0.31,0.78-0.1,1.38,0.62,1.81
		c1.36,1.6,0.84,4.06,2.5,5.53l-0.01-0.02c1.6,1.66,1.34,4.1,2.51,5.94l-0.16-0.26c3.16,2,0.64,6.12,3.13,8.38l-0.06-0.12
		c2.69,2.2,0.36,6.13,2.89,8.37l-0.02-0.06c2.55,2.24,0.25,6.12,2.83,8.35l-0.01-0.03c2.43,2.37,0.37,6.14,2.66,8.55l-0.08-0.16
		c2.67,2.55,0.85,6.41,2.69,9.21c-0.43,0.73-0.31,1.35,0.37,1.86c2.24,2.7,0.63,6.42,2.42,9.24c-0.43,0.73-0.31,1.36,0.36,1.88
		c2.8,3.39-0.19,8.09,2.59,11.48c-0.39,0.89-0.28,1.71,0.35,2.45C779.28,596.2,776.81,600.77,779.2,604.39z"/>
	<path class="st0" d="M490.09,299.01c-0.96,5.81-1.17,11.63,0.02,17.44c-3.17,9.37,0.81,19.31-2.29,28.68
		c-0.16,1.6-0.33,3.21-0.49,4.81c-2.66,4.59,0.39,10.09-2.37,14.66c-0.68,0.67-0.79,1.42-0.34,2.26
		c-2.57,3.51,0.11,8.11-2.41,11.63c-0.65,0.68-0.78,1.44-0.37,2.28c-2.08,2.6-0.34,6.22-2.37,8.83c-0.67,0.65-0.81,1.4-0.42,2.25
		c-2.07,2.62-0.25,6.32-2.47,8.9c-0.69,0.45-0.84,1.04-0.45,1.77c-0.86,2.14-0.86,4.58-2.23,6.55c-0.7,0.53-0.87,1.19-0.49,1.99
		c-2.01,2.68,0.19,6.75-2.99,9.04l0.17-0.28c-1.11,1.87-0.9,4.28-2.42,5.98l-0.01,0.03c-2.7,2.13-0.22,6.14-3,8.24l0.07-0.14
		c-1.44,1.67-1.11,4.12-2.54,5.79l-0.04,0.11c-2.86,1.96-0.08,6.26-3.34,8.05l0.17-0.26c-1.16,1.84-0.82,4.39-2.73,5.89l0.1-0.17
		c-1.4,1.69-1,4.24-2.74,5.76l0.05-0.09c-1.55,1.59-1.11,4.13-2.75,5.67l0.02-0.04c-1.64,1.51-1.15,4.09-2.82,5.59l0.03-0.05
		c-1.63,1.52-1.12,4.14-2.89,5.58l0.06-0.1c-1.54,1.59-1.05,4.21-2.9,5.64l0.08-0.14c-1.47,1.64-1.01,4.25-2.87,5.69l0.09-0.14
		c-1.46,1.65-0.99,4.27-2.89,5.7l0.09-0.17c-1.83,0.96-3.27,0.55-4.33-1.22c-4.25-9.69-2.4-19.94-2.48-29.94
		c-0.17-21.6-0.39-43.2,0.12-64.77c0.36-6.49,2.35-12.68,3.77-19c11.29-50.54,13.37-100.83-4.53-150.53
		c-5.59-15.52-6.86-15.75-18.82-4.42c-13.45,12.75-25.76,26.58-38.87,39.66c-64.81,64.67-135.66,123.62-188.93,199.24
		c-34.81,49.42-61.84,102.2-70.61,162.86c-8.81,60.93-1.56,119.71,22.79,176.5c10.13,23.62,23.41,45.15,38.28,65.87
		c-0.26,10.23-9.31,9.95-15.5,11.87c-10.39,3.23-15.02,7.64-8.39,18.34c2.32,3.74,4.5,8.07,2.07,12.84
		c-1.18,0.86-2.37,0.87-3.57,0.05l-0.11-0.15c-0.61-1.19-1.76-1.93-2.5-3.02l0.09,0.11c-1.11-0.89-2.17-1.82-2.72-3.18l0.25,0.26
		c-1.44-0.68-2.57-1.62-2.78-3.33l0.36,0.33c-2.61-0.62-1.8-3.81-3.71-4.94l-0.09-0.12c-0.73-1.11-1.78-1.95-2.51-3.05l0.12,0.14
		c-1.16-0.88-2.27-1.8-2.63-3.32l0.33,0.33c-2.43-0.93-1.73-3.9-3.46-5.28l0.01,0.01c-0.96-1.01-2.07-1.91-2.5-3.31l0.29,0.31
		c-2.29-0.97-1.56-3.94-3.44-5.17l-0.06-0.11c-0.77-1.11-1.94-1.93-2.42-3.26l0.24,0.27c-2.14-1.14-1.49-3.99-3.26-5.36
		l-0.01-0.03c-1.1-1.14-2.18-2.29-2.41-3.96c0.23-0.79-0.03-1.36-0.79-1.69c-0.73-1.02-1.44-2.04-2.15-3.07l0.19,0.24
		c-2.04-1.25-1.45-4.01-3.13-5.48l0.01,0.03c-1.64-1.4-0.99-4.07-2.93-5.31l-0.08-0.18c-0.95-1.25-2.08-2.4-2.24-4.09
		c0.32-0.73,0.11-1.25-0.61-1.58c-0.99-1.18-2.02-2.34-2.17-3.97c0.31-0.73,0.11-1.26-0.61-1.59c-0.99-1.18-2.02-2.34-2.17-3.97
		c0.31-0.73,0.11-1.26-0.61-1.59c-0.99-1.18-2.02-2.34-2.17-3.97c0.34-0.71,0.16-1.24-0.55-1.58c-1.43-1.64-0.99-4.08-2.46-5.7
		l0.06,0.13c-1.86-1.74-1.64-4.33-2.64-6.42c0.31-0.8,0.11-1.44-0.61-1.92c-1.33-1.65-0.88-4.06-2.42-5.62l0.04,0.09
		c-1.76-1.76-1.54-4.32-2.59-6.37c0.35-0.79,0.18-1.45-0.51-1.98c-1.4-1.91-1.29-4.36-2.26-6.42c0.37-0.78,0.21-1.41-0.49-1.91
		c-1.4-1.97-1.39-4.42-2.25-6.57c0.39-0.73,0.23-1.31-0.47-1.75c-1.49-1.96-1.46-4.44-2.3-6.62c0.43-0.68,0.31-1.24-0.36-1.69
		c-2.29-2.75-0.76-6.5-2.44-9.41c0.46-0.68,0.35-1.25-0.33-1.7c-2.3-2.78-0.8-6.53-2.44-9.48c0.48-0.66,0.37-1.2-0.32-1.63
		c-3.24-4.35,0.4-9.98-2.65-14.36c0.44-0.85,0.35-1.63-0.27-2.35c-2.45-3.8-0.28-8.47-2.32-12.35c-0.13-1.44-0.27-2.88-0.4-4.32
		c-3.45-8.35,0.8-17.44-2.48-25.8c0.01-12.41,0.01-24.81,0.02-37.22c3.05-7.46-0.71-15.61,2.31-23.07
		c0.14-1.64,0.29-3.28,0.43-4.92c2.79-4.52-0.47-10.06,2.46-14.56c0.64-0.67,0.74-1.41,0.3-2.22c2.56-3.53-0.17-8.16,2.46-11.67
		c0.64-0.65,0.76-1.38,0.34-2.19c2-2.65,0.32-6.27,2.35-8.91c0.67-0.63,0.82-1.37,0.42-2.21c2.05-2.64,0.2-6.38,2.52-8.95
		c0.7-0.42,0.83-0.97,0.4-1.66c0.79-2.19,0.88-4.61,2.18-6.64c0.68-0.6,0.84-1.32,0.48-2.15c2.11-2.59-0.11-6.63,2.96-8.9
		l-0.15,0.26c1.19-1.79,0.89-4.17,2.3-5.88c0.69-0.52,0.86-1.17,0.51-1.96c1.03-2.06,0.84-4.61,2.55-6.4l-0.03,0.06
		c2.6-2.17-0.01-6.35,3.2-8.29l-0.17,0.26c1.15-1.85,0.86-4.32,2.58-5.92l-0.04,0.08c1.57-1.56,1.05-4.09,2.6-5.65
		c0.7-0.32,0.87-0.81,0.5-1.49c0.81-2.31,0.53-5.1,2.97-6.69l-0.2,0.3c1.08-1.9,0.65-4.56,2.94-5.85l-0.19,0.27
		c1.11-1.88,0.68-4.54,2.94-5.84l-0.18,0.26c1.15-1.85,0.7-4.54,3-5.8l-0.27,0.32c0.31-1.35,1.45-2.15,2.16-3.24
		c0.73-0.31,0.96-0.84,0.67-1.58c0.17-1.69,1.29-2.85,2.28-4.08l0.06-0.13c1.89-1.29,1.26-3.95,2.93-5.36l-0.02,0.04
		c1.65-1.49,1.08-4.23,3.1-5.5l-0.14,0.2c1.37-1.7,0.77-4.55,3.28-5.58l-0.33,0.34c0.27-1.5,1.44-2.38,2.35-3.43l0.01-0.02
		c1.76-1.39,1.13-4.19,3.19-5.39l-0.21,0.25c0.54-1.25,1.7-2.05,2.31-3.24l0.13-0.24c2.03-1.12,1.29-3.94,3.16-5.15l-0.09,0.14
		c1.51-1.58,0.85-4.52,3.41-5.43l-0.35,0.35c0.25-1.59,1.4-2.5,2.58-3.38l-0.12,0.15c0.68-1.11,1.79-1.9,2.33-3.12l0.17-0.29
		c2.08-1.05,1.31-3.93,3.26-5.07l-0.17,0.2c0.64-1.18,1.74-2,2.4-3.16l0.12-0.18c1.98-1.13,1.21-4.14,3.47-5.07l-0.29,0.3
		c0.47-1.41,1.56-2.33,2.61-3.27l-0.06,0.08c0.89-0.92,1.68-1.93,2.37-3.01l0.19-0.29c2.09-1.01,1.29-4,3.42-4.99l-0.26,0.27
		c0.58-1.33,1.63-2.25,2.68-3.18l-0.06,0.07c0.89-0.93,1.7-1.93,2.43-2.99l0.15-0.23c2.02-1.06,1.23-4.13,3.55-4.97l-0.32,0.31
		c0.44-1.49,1.52-2.44,2.78-3.24l-0.17,0.19c0.65-1.21,1.73-2.07,2.6-3.1l0.02-0.03c0.97-0.81,1.76-1.76,2.41-2.84l0.22-0.28
		c2.08-0.95,1.24-4.15,3.69-4.81l-0.34,0.32c0.33-1.61,1.43-2.56,2.81-3.28l-0.23,0.24c0.61-1.32,1.65-2.26,2.76-3.13l-0.1,0.11
		c0.77-1.08,1.8-1.95,2.61-3l0.06-0.07c0.98-0.79,1.82-1.71,2.48-2.78l0.19-0.23c2.75-2.04,3.28-5.93,6.39-7.66l-0.33,0.3
		c0.4-1.59,1.47-2.57,2.92-3.2l-0.26,0.27c0.56-1.41,1.6-2.38,2.88-3.14l-0.2,0.2c0.7-1.25,1.71-2.22,2.88-3.03l-0.14,0.15
		c0.76-1.16,1.76-2.1,2.83-2.96l-0.09,0.1c0.81-1.06,1.81-1.95,2.7-2.94l0.01-0.01c0.95-0.86,1.81-1.81,2.59-2.83l0.13-0.15
		c1.03-0.7,1.86-1.6,2.51-2.67l0.24-0.24c1.07-0.62,1.92-1.47,2.54-2.54l0.24-0.24c1.07-0.63,1.92-1.46,2.54-2.54l0.24-0.24
		c1.08-0.61,1.91-1.47,2.54-2.54l0.24-0.24c1.07-0.62,1.91-1.46,2.52-2.54l0.26-0.27c1.07-0.6,1.92-1.43,2.49-2.52l0.28-0.28
		c1.08-0.58,1.93-1.41,2.5-2.5l0.28-0.28c1.09-0.58,1.92-1.41,2.5-2.5l0.24-0.25c10.44-11.67,21.43-22.79,33.2-33.13l0.21-0.2
		c1.07-0.64,1.94-1.47,2.6-2.53l0.2-0.19c1.05-0.69,1.94-1.55,2.68-2.56l0.13-0.12c1.02-0.77,1.93-1.65,2.74-2.63l0.07-0.07
		c0.99-0.83,1.9-1.73,2.75-2.7l0.04-0.04c1-0.83,1.91-1.76,2.77-2.73l0.02-0.02c0.98-0.87,1.89-1.8,2.8-2.75l0,0
		c0.96-0.91,1.88-1.85,2.82-2.76l-0.03,0.03c0.94-0.96,1.85-1.94,2.92-2.76l-0.1,0.09c0.86-1.08,1.8-2.08,2.96-2.83l-0.14,0.14
		c0.78-1.17,1.75-2.15,2.93-2.92l-0.15,0.15c0.79-1.16,1.77-2.14,2.94-2.92l-0.15,0.15c0.79-1.17,1.77-2.16,2.97-2.91l-0.17,0.17
		c0.76-1.21,1.75-2.21,2.99-2.94l-0.2,0.19c0.75-1.26,1.73-2.28,3.07-2.92l-0.24,0.23c0.67-1.35,1.67-2.37,3.05-2.99l-0.25,0.25
		c0.63-1.39,1.64-2.4,3.03-3.03l-0.25,0.25c0.63-1.4,1.64-2.42,3.06-3.01l-0.26,0.26c0.62-1.43,1.62-2.46,3.1-3l-0.28,0.28
		c0.57-1.5,1.57-2.54,3.13-3l-0.29,0.3c0.49-1.58,1.5-2.62,3.12-3.04l-0.3,0.3c0.43-1.63,1.46-2.65,3.08-3.08l-0.3,0.31
		c0.44-1.63,1.45-2.67,3.12-3.05l-0.31,0.31c0.39-1.68,1.41-2.71,3.11-3.07l-0.31,0.31c0.36-1.7,1.39-2.73,3.1-3.08l-0.31,0.32
		c0.36-1.73,1.37-2.79,3.15-3.02l-0.31,0.34c11.33-11.13,22.54-22.39,33.71-33.69l-0.33,0.32c0.22-1.82,1.27-2.83,3.05-3.13
		l-0.31,0.31c0.27-1.77,1.32-2.78,3.04-3.14l-0.31,0.31c0.33-1.71,1.38-2.73,3.06-3.12l-0.3,0.31c0.36-1.66,1.42-2.65,2.99-3.17
		l-0.29,0.3c0.47-1.54,1.52-2.53,2.96-3.15l-0.26,0.26c0.58-1.42,1.61-2.41,2.95-3.1l-0.22,0.23c0.65-1.31,1.67-2.28,2.88-3.07
		l-0.16,0.17c0.74-1.21,1.73-2.16,2.88-2.97l-0.12,0.13c0.77-1.13,1.78-2.04,2.76-2.97l-0.04,0.05c0.88-0.97,1.85-1.86,2.67-2.88
		l0.05-0.05c0.97-0.82,1.84-1.74,2.59-2.77l0.14-0.16c1.03-0.72,1.91-1.58,2.62-2.63l0.17-0.14c1.03-0.77,1.99-1.62,2.88-2.55
		l-0.02,0.02c0.99-0.97,1.89-2.04,3.22-2.59l-0.29,0.26c1.25-2.18,3.98-1.66,5.64-3.1l-0.19,0.1c8.29-2.6,16.62-2.27,24.95-0.22
		l-0.03-0.01c1.5,1.66,4.08,1.16,5.58,2.81l-0.03-0.02c3.55,1.94,6.03,4.99,8.5,8.07l0.11,0.17c0.68,1.15,1.79,1.97,2.41,3.17
		l-0.18-0.22c1.98,1.27,1.37,4.02,3.11,5.43l0.01,0.01c0.93,1.05,2.14,1.93,2.3,3.49l-0.35-0.34c2.65,0.99,2.06,3.83,3.24,5.66
		l-0.19-0.27c2.27,1.29,1.83,3.96,2.96,5.83l-0.19-0.28c2.37,1.47,1.96,4.25,2.99,6.35c-0.29,0.8-0.07,1.43,0.65,1.88
		c1.31,1.62,0.81,4.05,2.45,5.53l-0.01-0.03c1.61,1.65,1.35,4.1,2.51,5.94l-0.16-0.26c3.17,2.04,0.71,6.12,3.08,8.45l-0.09-0.17
		c2.78,2.27,0.64,6.13,2.78,8.61l-0.14-0.24c3.63,3.03,0.08,8.01,3.05,11.22l-0.06-0.15c3.2,3.32,0.07,8.16,2.79,11.59
		c-0.42,0.83-0.32,1.6,0.3,2.29c2.94,4.4-0.49,9.92,2.5,14.32c-0.44,0.83-0.37,1.62,0.23,2.35
		C491.04,279.56,486.92,289.59,490.09,299.01z"/>
	<path class="st1" d="M433.85,392.1c0.11,28.79,0.19,57.58,0.35,86.37c0.03,5.01,0.41,10.01,0.63,15.02
		c2.86,22.75,0.46,45.6,1.34,68.39c0.33,8.63-1.36,17.35,1.14,25.88c-0.64,0.8-0.53,1.47,0.33,2.03
		c2.76,3.34-0.23,7.99,2.56,11.33l-0.04-0.15c3.24,3.14-0.1,7.98,2.88,11.19l-0.02-0.09c2.51,2.42,0.63,6.13,2.56,8.73l-0.11-0.27
		c3.03,2.49,1.14,6.47,2.85,9.36l-0.3,0.96l0.76,0.65c1.47,2.04,1.58,4.54,2.3,6.83l-0.3,0.91l0.76,0.59
		c1.57,1.7,1.28,4.11,2.32,6.01l-0.1-0.18c1.1,0.8,1.82,1.85,2.15,3.16c9.34,18.04,16.64,37.14,28.03,54.12
		c40.56,64.83,97.27,111.71,163.63,148.12c10.13,5.56,22.88,7.14,29.72,18.16c3.18,1.64,6.36,3.28,10.41,5.36
		c-7.68,13.43-17.24,24.91-25.8,37.05c-1.96,2.78-4.42,2.43-7.22,1.09c-3.27-1.57-6.73-2.74-10.1-4.09
		c-6.43,1.11-11.7-2-16.99-4.82c-68.36-36.43-126.97-84.32-171.7-148.03c-14.33-20.41-27.5-41.71-35.77-66.94
		c-8.53,23.4-17.89,45.58-30.68,66.17c-33.25,53.53-78.27,94.34-133.66,123.83c-14.26,7.59-28.51,15.38-43.77,20.96
		c-4.31,1.58-8.48,3.91-13.35,2.36c-14.63,4.04-28.4,10.94-43.61,13.01c-2.32-0.12-3.01-1.52-2.85-3.6
		c-1.27-8.31-5.91-15.27-9.46-22.59c-3.05-6.31-1.5-8.72,4.95-10.58c8.71-2.51,17.1-6.11,25.64-9.24
		c1.31-6.35,7.45-6.41,11.7-8.19c40.58-16.91,77.89-39.59,108.66-70.64c45.85-46.26,78.93-100.11,85.33-167.04
		c0.22-2.3,0.58-4.59,1.04-6.88c1.07-36.91,0.36-73.79,0.39-110.67c-0.23-32.2-0.34-64.38,0.01-96.57
		c0.19-17.64,3.54-21.07,21.24-20.97C412.46,388.24,423.83,385.21,433.85,392.1z"/>
	<path class="st0" d="M481.92,704.6c-12.28-16.96-21.18-35.59-27.45-55.53c0.32-0.63,0.64-1.26,0.96-1.89
		c0.37,0.6,0.73,1.21,1.1,1.81l-0.25-0.4c1.62,0.31,2.65,1.33,3.31,2.78l-0.26-0.22c1.29,0.4,2.1,1.5,3.18,2.21
		c0.3,0.72,0.81,0.94,1.54,0.67c1.74,0.16,2.92,1.27,4.08,2.39l0.03,0.01c1.41,1.74,3.92,1.15,5.48,2.59
		c0.47,0.69,1.08,0.87,1.85,0.55c2.14,0.93,4.66,0.83,6.52,2.48l-0.04-0.01c3.21,3.02,7.89-0.14,11.15,2.66
		c0.58,0.68,1.25,0.79,2.02,0.34c10.71,1.9,21.41,1.92,32.11-0.02c0.75,0.51,1.42,0.43,2.03-0.24c3.34-2.88,8.01,0.11,11.4-2.58
		l-0.2,0.12c2.21-2.9,6.13-0.67,8.57-2.87l-0.11,0.12c2.31-2.93,5.4-4.47,9.01-5.08c21.27,2.5,21.2,2.46,31.07-16.98
		c21.61-42.52,37.81-87.26,54.77-131.71c1.43-3.74-0.18-12.68,9.26-9.45c3.12,42.13,11.5,84.29-5.67,125.72
		c-23.79,57.38-91.4,96.65-152.95,87.95C489.64,709.37,485.68,707.36,481.92,704.6z"/>
	<path class="st1" d="M650.28,497.1c-16.81,47.96-35.06,95.34-57.4,141.05c-0.41,0.83-0.85,1.64-1.29,2.46
		c-3.75,6.88-5.75,15.62-12.1,19.92c-7.29,4.95-14.26-4.53-22.1-3.89c-3.12-0.25-6.37-0.16-8.42-3.21l0.01,0.02
		c-2.24-2.33-6.46,0.37-8.21-3.22l0.37,0.27c-3.23-2.46-2.72-5.07-0.29-7.74l-0.13,0.23c1.17-1.83,0.75-4.43,2.84-5.81l-0.11,0.2
		c1.23-1.79,0.82-4.38,2.84-5.79l-0.09,0.18c1.29-1.75,0.88-4.33,2.8-5.77l-0.07,0.15c1.37-1.7,0.96-4.26,2.76-5.75l-0.05,0.1
		c1.46-1.64,1.07-4.15,2.67-5.73l0,0c1.69-1.46,1.13-3.96,2.56-5.54l0.8-0.61l-0.19-0.99c0.86-2.23,0.5-5.01,2.98-6.5l-0.16,0.27
		c0.96-1.95,0.65-4.48,2.67-5.96l-0.09,0.19c1.26-1.78,0.94-4.26,2.61-5.86l-0.01,0.04c1.6-1.52,1.1-3.97,2.47-5.6
		c0.87-0.38,1.07-0.98,0.61-1.8c0.94-2.13,0.69-4.77,2.71-6.45l-0.08,0.18c1.3-1.75,1-4.21,2.55-5.85l0.01-0.03
		c2.73-2.05,0.05-6.25,3.22-8.13l-0.11,0.24c1.15-1.85,0.81-4.31,2.41-5.97l0.72-0.51l-0.26-0.84c0.67-2.37,0.66-5.02,2.69-6.86
		l-0.08,0.2c1.27-1.76,0.92-4.18,2.37-5.87l0.78-0.71l-0.24-1.03c0.85-2.19,0.84-4.69,2.41-6.61l0-0.01
		c2.64-2.17,0.23-6.12,2.93-8.27l-0.04,0.11c2.43-2.29,0.08-6.26,2.93-8.4l-0.07,0.18c2.21-2.44,0.11-6.25,2.73-8.56l-0.03,0.11
		c2.37-2.36,0.23-6.17,2.72-8.49l-0.01,0.04c2.49-2.3,0.39-5.98,2.53-8.38c0.83-0.57,0.98-1.29,0.44-2.15
		c1.99-2.67,0.23-6.37,2.45-8.99c0.84-0.52,0.97-1.17,0.38-1.96c1.57-2.43,0.43-5.61,2.19-7.99c4.97-14.37,4.96-14.29,19.88-11.08
		c6.72,1.45,13.52,2.53,20.28,3.78c12.58-1,15.78,1.74,12.85,12.75C657.92,484.02,657.84,492.46,650.28,497.1z"/>
	<path class="st0" d="M378.52,615.73c-11.9-35.61-12.81-71.33-0.99-107.16c0.55-1.68,1.64-3.19,2.48-4.78
		c1.06,36.05,0.98,72.11-0.21,108.15C379.76,613.22,378.97,614.47,378.52,615.73z"/>
	<path class="st1" d="M279.07,479.08c1.49,7.58-1.32,13.65-2.87,19.77c-12.89,50.72-29.23,100.25-52.24,147.38
		c-11.2,22.94-11.41,22.86-35.03,13.75c-5.99-2.31-12.34-3.84-18.34-7.95c4.66-9.48,9.65-18.77,13.89-28.4
		c20.74-47.05,38.29-95.18,47.69-145.93c1.11-5.98,3.22-7.52,9.31-6.07C253.97,474.6,266.66,476.68,279.07,479.08z"/>
</g>
</svg>
