<svg preserveAspectRatio="xMidYMid meet" width="475" height="77.3342" overflow="visible" style="display: block;" viewBox="0 0 475 77.3342" fill="none" xmlns="http://www.w3.org/2000/svg">
<g id="Group">
<g id="Group_2">
<path id="Vector" d="M33.2444 63.367C33.2444 66.4983 32.3842 68.8827 30.6714 70.5426C28.9586 72.1951 26.6573 73.0251 23.7674 73.0251H15.6938V77.1298H10.2838V73.0251H4.60208V66.619H10.2838V58.7266H15.6938V66.619H23.5863C24.8162 66.619 25.782 66.2719 26.4762 65.5778C27.1703 64.8836 27.5174 63.9555 27.5174 62.7784C27.5174 61.2165 27.1553 59.8584 26.4384 58.719H32.1654C32.8898 59.8584 33.2444 61.4127 33.2444 63.367Z" fill="var(--fill-0, white)"/>
<path id="Vector_2" d="M32.6112 46.8108V53.2169H0V46.8108H11.635C10.3146 45.0075 9.65056 42.9023 9.65056 40.4953C9.65056 37.1301 10.6541 34.5571 12.6536 32.7839C14.6532 31.0108 17.4449 30.1204 21.0215 30.1204H32.6112L32.5659 36.5265H21.6477C19.9651 36.5265 18.5466 36.9641 17.4072 37.8318C16.2679 38.7071 15.6944 39.9219 15.6944 41.4838C15.6944 43.0457 16.2603 44.3661 17.3846 45.3395C18.5088 46.3204 19.9651 46.8033 21.7383 46.8033H32.6112V46.8108Z" fill="var(--fill-0, white)"/>
<path id="Vector_3" d="M33.2007 13.6562C33.2007 17.1723 32.0916 20.0849 29.8657 22.3862C27.6398 24.6875 24.765 25.8344 21.2488 25.8344C17.9741 25.8344 15.1899 24.7555 12.9036 22.5899C10.6174 20.4244 9.47803 17.6401 9.47803 14.2447C9.47803 10.8493 10.5646 8.09523 12.7452 6.08061C14.9258 4.06599 17.612 3.0549 20.7961 3.0549H22.69V19.6548C24.1915 19.4133 25.3988 18.7569 26.2967 17.693C27.2022 16.6291 27.6473 15.2935 27.6473 13.7015C27.6473 11.1134 26.5683 9.27985 24.4028 8.20086L26.8853 3.28127C28.8999 4.24708 30.4542 5.62788 31.5559 7.43123C32.6499 9.23458 33.2007 11.3096 33.2007 13.6562ZM19.1286 19.3831V9.41567C17.9591 9.56658 16.9857 10.0872 16.2161 10.97C15.4464 11.8604 15.0692 12.962 15.0692 14.2824C15.0692 15.6029 15.454 16.7649 16.2161 17.6628C16.9857 18.5682 17.9515 19.1341 19.1286 19.3756V19.3831Z" fill="var(--fill-0, white)"/>
</g>
<path id="Vector_4" d="M70.4219 39.2291C73.6136 35.9695 77.5221 34.3397 82.1399 34.3397C86.7577 34.3397 90.6435 35.9695 93.8051 39.2291C95.6612 41.1456 96.9515 43.2885 97.7211 45.6502H108.179C107.266 40.4213 104.972 35.9317 101.29 32.2043C96.4007 27.247 90.1531 24.7646 82.5473 24.7646C75.7565 24.7646 70.1201 27.247 65.6306 32.2043V3.05647H55.5424V45.6427H66.4606C67.2377 43.281 68.5431 41.1381 70.4219 39.2215V39.2291Z" fill="var(--fill-0, #EF1338)"/>
<path id="Vector_5" d="M93.8041 62.765C90.6426 66.0246 86.7567 67.6544 82.1389 67.6544C77.5211 67.6544 73.6126 66.0246 70.4209 62.765C68.3912 60.6976 67.0179 58.351 66.2785 55.7327H55.9187C56.7864 61.105 59.2084 65.7379 63.1849 69.6389C68.278 74.6339 74.5935 77.1239 82.1389 77.1239C89.6843 77.1239 95.8941 74.5962 100.987 69.5332C104.949 65.6021 107.363 60.9994 108.246 55.7252H97.9088C97.1769 58.3434 95.8112 60.6825 93.8116 62.7575L93.8041 62.765Z" fill="var(--fill-0, #EF1338)"/>
<path id="Vector_6" d="M132.159 55.7318H122.07V75.9081H132.159V55.7318Z" fill="var(--fill-0, #EF1338)"/>
<path id="Vector_7" d="M132.159 3.05647H122.07V45.6427H132.159V3.05647Z" fill="var(--fill-0, #EF1338)"/>
<path id="Vector_8" d="M183.716 62.6584C180.524 65.918 176.616 67.5478 171.998 67.5478C167.38 67.5478 163.471 65.918 160.28 62.6584C158.265 60.6061 156.892 58.2972 156.152 55.7318H145.793C146.645 60.9758 148.901 65.5634 152.591 69.487C157.382 74.5801 163.343 77.1305 170.474 77.1305C174.48 77.1305 178.094 76.2477 181.324 74.4821C184.546 72.7164 187.111 70.2717 189.013 67.1479V75.9081H198.588V55.7318H187.843C187.096 58.2972 185.723 60.6061 183.716 62.6584Z" fill="var(--fill-0, #EF1338)"/>
<path id="Vector_9" d="M160.278 39.1227C163.47 35.8631 167.378 34.2333 171.996 34.2333C176.614 34.2333 180.522 35.8631 183.714 39.1227C185.608 41.0543 186.921 43.2349 187.69 45.6419H198.126C197.19 40.4884 194.791 36.0215 190.942 32.2413C185.849 27.2462 179.534 24.7563 171.988 24.7563C164.443 24.7563 158.135 27.3066 153.034 32.3997C149.209 36.2252 146.824 40.6393 145.866 45.6419H156.286C157.056 43.2349 158.376 41.0543 160.27 39.1227H160.278Z" fill="var(--fill-0, #EF1338)"/>
<path id="Vector_10" d="M217.587 69.4342C222.718 74.5651 228.845 77.0928 235.975 77.0249C240.729 77.0249 245.06 75.9232 248.969 73.7124C252.87 71.5092 255.948 68.2269 258.189 63.8808L249.836 59.2932C246.848 64.7938 242.231 67.5478 235.983 67.5478C231.569 67.5478 227.796 65.9029 224.672 62.6056C222.726 60.5533 221.39 58.267 220.658 55.7318H210.321C211.234 60.9305 213.656 65.4955 217.595 69.4342H217.587Z" fill="var(--fill-0, #EF1338)"/>
<path id="Vector_11" d="M224.672 39.1792C227.796 35.9573 231.569 34.3426 235.983 34.3426C242.231 34.3426 246.848 37.0966 249.836 42.5972L258.189 37.9115C255.948 33.5654 252.877 30.2907 248.969 28.0799C245.06 25.8766 240.729 24.7675 235.975 24.7675C228.777 24.6995 222.628 27.2273 217.535 32.3581C213.709 36.2063 211.325 40.643 210.366 45.6531H220.756C221.511 43.2612 222.801 41.1032 224.657 39.1867L224.672 39.1792Z" fill="var(--fill-0, #EF1338)"/>
<path id="Vector_12" d="M280.602 55.7318H270.513V75.9081H280.602V55.7318Z" fill="var(--fill-0, #EF1338)"/>
<path id="Vector_13" d="M317.383 25.9784H305.054L289.058 43.4007C288.326 44.1326 287.745 44.8796 287.292 45.6417H299.342L317.383 25.9784Z" fill="var(--fill-0, #EF1338)"/>
<path id="Vector_14" d="M280.602 2.95777H270.513V45.6496H280.602V2.95777Z" fill="var(--fill-0, #EF1338)"/>
<path id="Vector_15" d="M288.961 58.4858L304.852 75.9081H317.279L299.019 55.7318H287.105C287.573 56.5995 288.184 57.5125 288.961 58.4858Z" fill="var(--fill-0, #EF1338)"/>
<path id="Vector_16" d="M342.543 55.7318H328.078V75.9081H342.543V55.7318Z" fill="var(--fill-0, white)"/>
<path id="Vector_17" d="M341.238 3.80326H326.773V47.2044H341.238V3.80326Z" fill="var(--fill-0, white)"/>
<path id="Vector_18" d="M373.209 25.4751H358.744V45.6515H373.209V25.4751Z" fill="var(--fill-0, white)"/>
<path id="Vector_19" d="M365.983 17.9281C368.427 17.9281 370.518 17.0603 372.245 15.3324C373.981 13.6046 374.841 11.4768 374.841 8.96413C374.841 6.45152 373.973 4.41426 372.245 2.64864C370.518 0.883017 368.427 0.000205994 365.983 0.000205994C363.538 0.000205994 361.433 0.883017 359.667 2.64864C357.902 4.41426 357.019 6.51943 357.019 8.96413C357.019 11.4088 357.902 13.597 359.667 15.3324C361.433 17.0679 363.538 17.9281 365.983 17.9281Z" fill="var(--fill-0, white)"/>
<path id="Vector_20" d="M373.209 55.7318H358.744V75.9081H373.209V55.7318Z" fill="var(--fill-0, white)"/>
<path id="Vector_21" d="M408.005 44.7777C405.93 44.4683 404.217 43.91 402.859 43.0951C401.501 42.2802 400.822 41.2616 400.822 40.0392C400.822 38.7489 401.395 37.6926 402.55 36.8777C403.704 36.0628 405.198 35.6553 407.032 35.6553C411.65 35.6553 414.773 37.4587 416.403 41.0578L427.102 35.0441C425.405 31.8524 422.839 29.2342 419.414 27.1969C415.981 25.1597 411.755 24.1411 406.73 24.1411C400.618 24.1411 395.691 25.6879 391.956 28.7739C388.221 31.8675 386.35 35.7232 386.35 40.341C386.35 42.3104 386.637 44.076 387.202 45.6379H412.344C410.835 45.2682 409.378 44.9739 408.005 44.7702V44.7777Z" fill="var(--fill-0, white)"/>
<path id="Vector_22" d="M406.887 56.2901C408.955 56.5919 410.675 57.1427 412.033 57.9199C413.391 58.7046 414.07 59.7006 414.07 60.923C414.07 62.417 413.391 63.5865 412.033 64.4391C410.675 65.2918 408.804 65.7143 406.427 65.7143C401.402 65.7143 397.87 63.7751 395.833 59.9044L385.134 65.918C389.344 73.5238 396.678 77.3267 407.144 77.3267C413.052 77.3267 418.1 75.7799 422.272 72.6938C426.452 69.6002 428.535 65.5785 428.535 60.6212C428.535 58.8178 428.286 57.188 427.788 55.7318H403.786C404.85 55.9581 405.884 56.1467 406.88 56.2901H406.887Z" fill="var(--fill-0, white)"/>
<path id="Vector_23" d="M457.164 37.6973H474.994V25.4738H457.164V12.6315H442.692V25.4738H433.427V37.6973H442.692V45.6426H457.164V37.6973Z" fill="var(--fill-0, white)"/>
<path id="Vector_24" d="M442.699 55.9355C442.699 62.4547 444.562 67.6535 448.305 71.5243C452.04 75.395 457.442 77.3342 464.505 77.3342C468.919 77.3342 472.42 76.5193 475 74.8895V61.9492C472.42 63.579 469.364 64.3939 465.833 64.3939C463.184 64.3939 461.079 63.6167 459.517 62.0472C457.993 60.5231 457.216 58.4179 457.178 55.7318H442.706V55.9355H442.699Z" fill="var(--fill-0, white)"/>
</g>
</svg>
