<svg preserveAspectRatio="xMidYMid meet" width="141" height="22.9563" overflow="visible" style="display: block;" viewBox="0 0 141 22.9563" fill="none" xmlns="http://www.w3.org/2000/svg">
<g id="Group">
<g id="Group_2">
<path id="Vector" d="M9.86828 18.8104C9.86828 19.7399 9.61294 20.4477 9.10451 20.9404C8.59608 21.4309 7.91294 21.6773 7.0551 21.6773H4.65853V22.8958H3.0526V21.6773H1.36604V19.7757H3.0526V17.4329H4.65853V19.7757H7.00134C7.36643 19.7757 7.65312 19.6727 7.85918 19.4667C8.06524 19.2606 8.16828 18.9851 8.16828 18.6357C8.16828 18.1721 8.06077 17.7689 7.84799 17.4307H9.54799C9.76301 17.7689 9.86828 18.2303 9.86828 18.8104Z" fill="var(--fill-0, white)"/>
<path id="Vector_2" d="M9.68037 13.8959V15.7974H0V13.8959H3.45375C3.06179 13.3606 2.86469 12.7357 2.86469 12.0212C2.86469 11.0222 3.16258 10.2584 3.75613 9.7321C4.34967 9.20575 5.17839 8.94145 6.24005 8.94145H9.68037L9.66693 10.843H6.42595C5.92648 10.843 5.5054 10.9729 5.16719 11.2305C4.82899 11.4903 4.65876 11.8509 4.65876 12.3146C4.65876 12.7782 4.82675 13.1702 5.16047 13.4591C5.4942 13.7503 5.92648 13.8936 6.45283 13.8936H9.68037V13.8959Z" fill="var(--fill-0, white)"/>
<path id="Vector_3" d="M9.85541 4.05418C9.85541 5.09792 9.52616 5.96248 8.86542 6.64562C8.20469 7.32875 7.35133 7.6692 6.30758 7.6692C5.33552 7.6692 4.50903 7.34891 3.83038 6.70609C3.15172 6.06327 2.81351 5.23679 2.81351 4.22889C2.81351 3.22098 3.13604 2.40346 3.78334 1.80543C4.43064 1.20741 5.22801 0.907279 6.1732 0.907279H6.73538V5.83481C7.1811 5.76314 7.53947 5.56828 7.806 5.25247C8.07478 4.93666 8.20693 4.54022 8.20693 4.06762C8.20693 3.29937 7.88664 2.7551 7.24382 2.43482L7.98071 0.974473C8.57873 1.26117 9.04013 1.67105 9.36714 2.20636C9.69191 2.74167 9.85541 3.35761 9.85541 4.05418ZM5.6782 5.75418V2.79542C5.33104 2.84022 5.0421 2.99476 4.81364 3.25682C4.58519 3.52111 4.4732 3.84812 4.4732 4.24008C4.4732 4.63205 4.58743 4.97698 4.81364 5.24351C5.0421 5.51229 5.3288 5.68027 5.6782 5.75194V5.75418Z" fill="var(--fill-0, white)"/>
</g>
<path id="Vector_4" d="M20.9042 11.6452C21.8516 10.6776 23.0118 10.1938 24.3826 10.1938C25.7533 10.1938 26.9068 10.6776 27.8453 11.6452C28.3963 12.2141 28.7793 12.8502 29.0077 13.5512H32.1121C31.8411 11.999 31.1602 10.6664 30.0671 9.55992C28.6158 8.08838 26.7612 7.35149 24.5035 7.35149C22.4877 7.35149 20.8146 8.08838 19.4819 9.55992V0.907612H16.4873V13.549H19.7283C19.959 12.8479 20.3465 12.2118 20.9042 11.6429V11.6452Z" fill="var(--fill-0, #EF1338)"/>
<path id="Vector_5" d="M27.845 18.6316C26.9065 19.5992 25.753 20.083 24.3822 20.083C23.0115 20.083 21.8513 19.5992 20.9038 18.6316C20.3013 18.0179 19.8937 17.3213 19.6742 16.5441H16.599C16.8565 18.1388 17.5755 19.5141 18.7559 20.6721C20.2677 22.1548 22.1424 22.8939 24.3822 22.8939C26.622 22.8939 28.4654 22.1436 29.9772 20.6407C31.1531 19.4738 31.8699 18.1075 32.1319 16.5419H29.0634C28.8461 17.3191 28.4407 18.0134 27.8472 18.6294L27.845 18.6316Z" fill="var(--fill-0, #EF1338)"/>
<path id="Vector_6" d="M39.2302 16.5436H36.2356V22.5328H39.2302V16.5436Z" fill="var(--fill-0, #EF1338)"/>
<path id="Vector_7" d="M39.2302 0.907612H36.2356V13.549H39.2302V0.907612Z" fill="var(--fill-0, #EF1338)"/>
<path id="Vector_8" d="M54.5346 18.5997C53.5871 19.5673 52.4269 20.0511 51.0562 20.0511C49.6854 20.0511 48.5252 19.5673 47.5778 18.5997C46.9798 17.9905 46.5721 17.3051 46.3526 16.5436H43.2774C43.5305 18.1002 44.2002 19.462 45.2954 20.6267C46.7177 22.1385 48.4871 22.8956 50.6037 22.8956C51.7931 22.8956 52.8659 22.6335 53.8246 22.1094C54.7809 21.5853 55.5425 20.8596 56.1069 19.9324V22.5328H58.9492V16.5436H55.7597C55.538 17.3051 55.1304 17.9905 54.5346 18.5997Z" fill="var(--fill-0, #EF1338)"/>
<path id="Vector_9" d="M47.5772 11.6136C48.5246 10.646 49.6849 10.1622 51.0556 10.1622C52.4264 10.1622 53.5866 10.646 54.534 11.6136C55.0962 12.187 55.4859 12.8343 55.7144 13.5488H58.812C58.5343 12.019 57.822 10.6931 56.6797 9.57092C55.1679 8.08818 53.2932 7.34905 51.0534 7.34905C48.8136 7.34905 46.9411 8.1061 45.427 9.61796C44.2914 10.7535 43.5837 12.0638 43.2992 13.5488H46.3924C46.6208 12.8343 47.0128 12.187 47.575 11.6136H47.5772Z" fill="var(--fill-0, #EF1338)"/>
<path id="Vector_10" d="M64.589 20.611C66.1121 22.1341 67.9308 22.8844 70.0474 22.8642C71.4585 22.8642 72.7441 22.5372 73.9043 21.881C75.0623 21.227 75.9761 20.2526 76.6413 18.9625L74.1619 17.6007C73.2749 19.2335 71.9042 20.0511 70.0496 20.0511C68.7394 20.0511 67.6195 19.5628 66.6922 18.584C66.1143 17.9748 65.7179 17.2961 65.5006 16.5436H62.4321C62.7031 18.0868 63.4221 19.4418 64.5913 20.611H64.589Z" fill="var(--fill-0, #EF1338)"/>
<path id="Vector_11" d="M66.6922 11.63C67.6195 10.6736 68.7394 10.1943 70.0496 10.1943C71.9042 10.1943 73.2749 11.0118 74.1619 12.6446L76.6413 11.2537C75.9761 9.96356 75.0645 8.99149 73.9043 8.33524C72.7441 7.68122 71.4585 7.35197 70.0474 7.35197C67.9106 7.33181 66.0852 8.08214 64.5733 9.6052C63.4378 10.7475 62.73 12.0645 62.4455 13.5517H65.5297C65.7537 12.8417 66.1367 12.2011 66.6877 11.6322L66.6922 11.63Z" fill="var(--fill-0, #EF1338)"/>
<path id="Vector_12" d="M83.2943 16.5436H80.2997V22.5328H83.2943V16.5436Z" fill="var(--fill-0, #EF1338)"/>
<path id="Vector_13" d="M94.2125 7.71176H90.5527L85.8044 12.8834C85.5871 13.1007 85.4146 13.3224 85.2803 13.5487H88.8572L94.2125 7.71176Z" fill="var(--fill-0, #EF1338)"/>
<path id="Vector_14" d="M83.2943 0.878226H80.2997V13.551H83.2943V0.878226Z" fill="var(--fill-0, #EF1338)"/>
<path id="Vector_15" d="M85.7758 17.3611L90.4928 22.5328H94.1818L88.7615 16.5436H85.2248C85.3637 16.8011 85.5451 17.0721 85.7758 17.3611Z" fill="var(--fill-0, #EF1338)"/>
<path id="Vector_16" d="M101.681 16.5436H97.3873V22.5328H101.681V16.5436Z" fill="var(--fill-0, white)"/>
<path id="Vector_17" d="M101.294 1.12914H97V14.0124H101.294V1.12914Z" fill="var(--fill-0, white)"/>
<path id="Vector_18" d="M110.784 7.56231H106.49V13.5515H110.784V7.56231Z" fill="var(--fill-0, white)"/>
<path id="Vector_19" d="M108.639 5.32174C109.365 5.32174 109.985 5.06416 110.498 4.55125C111.013 4.03834 111.269 3.40672 111.269 2.66087C111.269 1.91502 111.011 1.31028 110.498 0.786166C109.985 0.262055 109.365 0 108.639 0C107.913 0 107.288 0.262055 106.764 0.786166C106.24 1.31028 105.978 1.93518 105.978 2.66087C105.978 3.38656 106.24 4.0361 106.764 4.55125C107.288 5.0664 107.913 5.32174 108.639 5.32174Z" fill="var(--fill-0, white)"/>
<path id="Vector_20" d="M110.784 16.5436H106.49V22.5328H110.784V16.5436Z" fill="var(--fill-0, white)"/>
<path id="Vector_21" d="M121.113 13.2918C120.497 13.2 119.989 13.0343 119.586 12.7924C119.182 12.5505 118.981 12.2481 118.981 11.8853C118.981 11.5023 119.151 11.1887 119.494 10.9468C119.836 10.7049 120.28 10.5839 120.824 10.5839C122.195 10.5839 123.122 11.1192 123.606 12.1876L126.782 10.4025C126.278 9.45508 125.516 8.67788 124.5 8.07313C123.481 7.46839 122.226 7.16602 120.735 7.16602C118.92 7.16602 117.458 7.62518 116.349 8.54125C115.24 9.45956 114.685 10.6041 114.685 11.9748C114.685 12.5594 114.77 13.0835 114.938 13.5472H122.401C121.953 13.4374 121.521 13.3501 121.113 13.2896V13.2918Z" fill="var(--fill-0, white)"/>
<path id="Vector_22" d="M120.781 16.7093C121.395 16.7989 121.906 16.9624 122.309 17.1931C122.712 17.426 122.913 17.7217 122.913 18.0845C122.913 18.528 122.712 18.8752 122.309 19.1283C121.906 19.3814 121.35 19.5068 120.645 19.5068C119.153 19.5068 118.105 18.9312 117.5 17.7822L114.324 19.5673C115.574 21.825 117.751 22.9538 120.857 22.9538C122.611 22.9538 124.109 22.4947 125.348 21.5786C126.589 20.6603 127.207 19.4665 127.207 17.9949C127.207 17.4596 127.133 16.9758 126.985 16.5436H119.861C120.176 16.6108 120.483 16.6667 120.779 16.7093H120.781Z" fill="var(--fill-0, white)"/>
<path id="Vector_23" d="M135.706 11.1903H140.998V7.56179H135.706V3.74967H131.41V7.56179H128.659V11.1903H131.41V13.5487H135.706V11.1903Z" fill="var(--fill-0, white)"/>
<path id="Vector_24" d="M131.411 16.604C131.411 18.5392 131.965 20.0824 133.076 21.2314C134.184 22.3804 135.788 22.9561 137.884 22.9561C139.195 22.9561 140.234 22.7142 141 22.2304V18.3891C140.234 18.8729 139.327 19.1148 138.279 19.1148C137.492 19.1148 136.868 18.8841 136.404 18.4183C135.952 17.9658 135.721 17.3409 135.71 16.5436H131.414V16.604H131.411Z" fill="var(--fill-0, white)"/>
</g>
</svg>
